<svg xmlns="http://www.w3.org/2000/svg" viewBox="0 0 320 260" width="320" height="260" role="img"><title>Temple stone footprint — no turrets</title><defs><clipPath id="footprint"><path d="M36 40H284V188H208V224H112V188H36Z"/></clipPath><filter id="glow" x="-100%" y="-100%" width="300%" height="300%"><feGaussianBlur stdDeviation="3"/><feMerge><feMergeNode/><feMergeNode in="SourceGraphic"/></feMerge></filter><pattern id="paving" width="40" height="40" patternUnits="userSpaceOnUse"><rect width="40" height="40" fill="#d8d5c8"/><path d="M0 0H40M0 20H40M0 0V20M20 20V40" fill="none" stroke="#b3b7b6"/></pattern></defs><path d="M36 40H284V188H208V224H112V188H36Z" transform="translate(0 7)" fill="#8b929a" stroke="#687581"/><path d="M36 40H284V188H208V224H112V188H36Z" fill="url(#paving)"/><g clip-path="url(#footprint)" fill="none"><path d="M36 40H284V188H208V224H112V188H36Z" stroke="#687581" stroke-width="13"/><path d="M36 40H284V188H208V224H112V188H36Z" stroke="#edeadd" stroke-width="10"/><path d="M36 40H284V188H208V224H112V188H36Z" stroke="#fff9e8" stroke-width="2"/></g></svg>
